<?xml version="1.0" encoding="UTF-8" standalone="no"?>
<!-- Created with Inkscape (http://www.inkscape.org/) -->

<svg
   xmlns:dc="http://purl.org/dc/elements/1.1/"
   xmlns:cc="http://creativecommons.org/ns#"
   xmlns:rdf="http://www.w3.org/1999/02/22-rdf-syntax-ns#"
   xmlns:svg="http://www.w3.org/2000/svg"
   xmlns="http://www.w3.org/2000/svg"
   xmlns:sodipodi="http://sodipodi.sourceforge.net/DTD/sodipodi-0.dtd"
   xmlns:inkscape="http://www.inkscape.org/namespaces/inkscape"
   width="400mm"
   height="400mm"
   viewBox="0 0 1417.3228 1417.3228"
   id="svg2"
   version="1.1"
   inkscape:version="0.91 r13725"
   sodipodi:docname="icon.svg"
   inkscape:export-filename="D:\Dropbox\Projects\Strong Password Generator\icon-80.png"
   inkscape:export-xdpi="5.0799999"
   inkscape:export-ydpi="5.0799999">
  <defs
     id="defs4" />
  <sodipodi:namedview
     id="base"
     pagecolor="#ffffff"
     bordercolor="#666666"
     borderopacity="1.0"
     inkscape:pageopacity="0.0"
     inkscape:pageshadow="2"
     inkscape:zoom="0.37394444"
     inkscape:cx="708.66142"
     inkscape:cy="708.66142"
     inkscape:document-units="px"
     inkscape:current-layer="g3395"
     showgrid="false"
     inkscape:window-width="1366"
     inkscape:window-height="705"
     inkscape:window-x="-8"
     inkscape:window-y="-8"
     inkscape:window-maximized="1" />
  <metadata
     id="metadata7">
    <rdf:RDF>
      <cc:Work
         rdf:about="">
        <dc:format>image/svg+xml</dc:format>
        <dc:type
           rdf:resource="http://purl.org/dc/dcmitype/StillImage" />
        <dc:title></dc:title>
      </cc:Work>
    </rdf:RDF>
  </metadata>
  <g
     inkscape:label="Layer 1"
     inkscape:groupmode="layer"
     id="layer1"
     transform="translate(0,364.96063)">
    <g
       id="g3390"
       transform="matrix(1.418539,0,0,1.418539,-292.42179,-62.515142)">
      <g
         id="g3395"
         transform="matrix(1.0019302,0,0,1.0019302,-1.3621679,-24.521054)"
         style="fill:#c34a46;fill-opacity:1">
        <g
           id="g4200">
          <path
             inkscape:connector-curvature="0"
             id="path3355-7"
             d="m 702.51921,547.35653 0,-19.76375 -3.11619,0.46729 c -14.9033,2.23472 -27.06457,14.98243 -28.98938,30.38719 l -0.46142,3.69278 -2.63193,0 -2.63194,0 0.43713,-3.47279 c 2.36937,-18.82393 16.07358,-33.16936 34.29728,-35.902 l 3.09645,-0.46432 0,-6.51732 0,-6.51735 -7.11137,-0.18774 -7.11135,-0.18775 -0.20529,-2.48056 -0.20532,-2.48055 7.31669,0 7.31664,0 0,-5.60023 0,-5.60021 -7.11137,-0.18775 -7.11135,-0.18774 -0.20529,-2.48056 -0.20532,-2.48056 7.31669,0 7.31664,0 0,-5.60022 0,-5.60021 -7.11137,-0.18774 -7.11135,-0.18776 -0.20529,-2.48056 -0.20532,-2.48054 7.31669,0 7.31664,0 0,-12.14237 0,-12.14237 -4.46528,-1.09729 c -2.45589,-0.60351 -6.10251,-2.12004 -8.10363,-3.37006 l -3.63837,-2.27278 -8.59166,8.56189 -8.59167,8.5619 6.26229,6.28807 6.26231,6.28807 -1.80612,1.80601 -1.80612,1.80602 -6.2867,-6.26019 -6.28669,-6.26018 -4.04759,4.04733 -4.04758,4.04734 6.03538,6.1686 c 3.31946,3.39274 6.03537,6.35221 6.03537,6.5766 0,0.22438 -0.75282,1.11518 -1.67292,1.97951 l -1.67293,1.57154 -6.26148,-6.23507 -6.26148,-6.23508 -3.97742,3.93569 -3.97743,3.9357 6.30407,6.32743 6.30408,6.32746 -1.85871,1.78067 -1.85873,1.78066 -6.24577,-6.2715 -6.24578,-6.27149 -4.74732,4.71533 -4.74729,4.71534 2.24416,3.12352 c 10.2902,14.32233 9.81097,33.91616 -1.17346,47.97972 l -2.82963,3.62282 -1.92785,-1.92772 -1.92783,-1.9277 2.43593,-2.84568 c 9.39597,-10.97643 10.12725,-29.04691 1.67271,-41.33442 l -2.09553,-3.04558 -13.99745,13.98524 -13.99744,13.98523 -1.9364,-2.02103 -1.93641,-2.02106 13.86782,-13.89666 13.86781,-13.89666 -1.65381,-1.32272 c -11.60524,-9.28191 -30.75938,-8.94573 -42.41342,0.74441 l -3.0529,2.53843 -1.84485,-1.92547 -1.84484,-1.92549 1.59014,-1.3807 c 13.76667,-11.95343 34.25703,-13.33574 48.95636,-3.30268 l 4.08541,2.78852 4.69302,-4.69274 4.69302,-4.69273 -4.93447,-4.96733 -4.93446,-4.96732 1.80264,-1.80251 1.80261,-1.80251 4.96008,4.92668 4.96008,4.92668 3.9738,-3.93212 3.9738,-3.93209 -4.63323,-4.66409 c -2.54826,-2.56523 -4.63323,-4.97727 -4.63323,-5.36006 0,-0.3828 0.68409,-1.33862 1.52019,-2.12405 l 1.52019,-1.42805 4.76936,4.62015 c 2.62314,2.5411 4.99962,4.62016 5.28109,4.62016 0.28148,0 2.21354,-1.71961 4.2935,-3.82137 l 3.78172,-3.82139 -4.95045,-4.91711 -4.95046,-4.91712 1.78108,-1.85895 1.78109,-1.85895 5.00194,4.97231 5.00195,4.97231 8.58193,-8.6005 c 7.56377,-7.58013 8.48295,-8.7374 7.74767,-9.75433 -1.90683,-2.63714 -4.76136,-9.1963 -5.1605,-11.85776 l -0.42838,-2.85641 -12.16302,0 -12.16304,0 0,8.93 0,8.93 -2.64609,0 -2.64607,0 0,-8.93 0,-8.93 -5.62294,0 -5.62293,0 0,8.93 0,8.93 -2.64609,0 -2.64607,0 0,-8.93 0,-8.93 -5.62295,0 -5.62293,0 0,8.93 0,8.93 -2.64609,0 -2.64607,0 0,-8.93 0,-8.93 -6.94598,0 -6.94597,0 0,1.72359 c 0,0.94798 -0.47189,3.55256 -1.04866,5.78796 -4.0332,15.63227 -18.25603,27.82677 -34.18134,29.3068 l -4.55299,0.42312 0.21121,-2.5798 0.21125,-2.5798 3.64338,-0.39191 c 10.08411,-1.08465 19.54072,-6.85942 25.11043,-15.33391 2.38356,-3.62666 4.34862,-8.72092 5.60753,-14.53698 l 0.39373,-1.81907 -19.85824,0 -19.85825,0 0,-2.6361 0,-2.63607 19.68027,-0.17521 19.68026,-0.17522 -0.20225,-1.98444 c -0.64272,-6.30651 -4.22739,-13.55938 -9.47289,-19.16648 -5.13223,-5.48606 -12.29544,-9.23433 -19.92795,-10.42764 l -5.12679,-0.80156 0,-2.49679 c 0,-2.95819 0.23028,-3.00118 7.80077,-1.45629 16.42363,3.35152 29.47479,16.98236 31.78814,33.20002 l 0.44694,3.13318 6.7737,0.18851 6.7737,0.18852 0,-7.33938 0,-7.33936 2.4807,0.20529 2.4807,0.2053 0.18777,7.11093 0.18777,7.11093 5.60053,0 5.60057,0 0,-7.31622 0,-7.31623 2.4807,0.20529 2.4807,0.2053 0.18775,7.11093 0.18777,7.11093 5.60055,0 5.60056,0 0,-7.31622 0,-7.31623 2.48071,0.20529 2.48069,0.2053 0.18775,7.11093 0.18777,7.11093 12.13053,0 12.13055,0 0.42492,-3.14203 c 0.38269,-2.82993 2.54526,-7.90244 5.07519,-11.90443 0.89959,-1.42301 0.58933,-1.83701 -7.31198,-9.75685 -4.53828,-4.54893 -8.54797,-8.27077 -8.91043,-8.27077 -0.36246,0 -3.41775,2.74709 -6.78954,6.10465 l -6.1305,6.10466 -1.80645,-1.80634 -1.80644,-1.80635 6.44055,-6.46441 6.44055,-6.46446 -3.97741,-3.93568 -3.97745,-3.93569 -6.28653,6.26004 c -5.21042,5.18843 -6.47613,6.14045 -7.39407,5.56149 -3.06738,-1.93475 -2.7812,-2.63576 3.75575,-9.19961 l 6.26041,-6.28616 -3.93594,-3.9772 -3.93591,-3.9772 -6.44669,6.42212 -6.44668,6.42212 -1.67327,-1.57186 c -0.92029,-0.86451 -1.67325,-1.80575 -1.67325,-2.09162 0,-0.28586 2.30762,-2.86791 5.12805,-5.73789 7.94676,-8.08634 7.67703,-6.79582 2.50895,-12.00351 l -4.4931,-4.5275 -4.66326,3.01647 c -12.2616,7.9315 -27.17713,8.85936 -39.8308,2.47775 -2.54964,-1.28586 -5.97301,-3.50509 -7.60749,-4.93163 l -2.97178,-2.59369 1.80076,-1.70634 1.80077,-1.70637 3.16063,2.42631 c 11.17578,8.57927 25.82545,9.89639 38.01898,3.41823 7.43994,-3.95267 7.98445,-2.66049 -7.76126,-18.41865 l -13.84569,-13.85665 1.81327,-1.81317 1.81328,-1.81317 13.85748,13.84486 c 15.75911,15.74475 14.46684,15.20029 18.41976,7.7608 6.55182,-12.33068 5.22437,-26.67651 -3.52956,-38.14407 l -2.42116,-3.17172 1.76475,-1.73134 1.76473,-1.73133 2.58849,2.97161 c 1.42367,1.63438 3.64062,5.05754 4.92656,7.60703 6.35375,12.59692 5.44338,27.75175 -2.37588,39.55158 l -3.16271,4.77276 4.40325,4.46499 c 2.4218,2.45575 4.61222,4.46501 4.86762,4.46501 0.25541,0 2.56819,-2.14153 5.1395,-4.75896 l 4.6751,-4.75895 2.00335,1.9192 2.00334,1.91921 -4.97817,5.00726 -4.9782,5.00726 3.97427,3.93255 3.97425,3.93258 4.96008,-4.92668 4.96008,-4.92669 1.80262,1.80251 1.80263,1.80251 -4.92698,4.9598 -4.92699,4.95977 3.93281,3.97404 3.93279,3.97401 5.00757,-4.97789 5.00755,-4.97789 1.78167,1.85956 1.78167,1.85953 -4.62159,4.58591 c -2.54188,2.52224 -4.62159,4.88739 -4.62159,5.25591 0,0.36852 3.76947,4.44764 8.37659,9.06473 l 8.37655,8.39473 2.07803,-1.58486 c 2.60016,-1.98312 6.32694,-3.59696 10.60652,-4.59302 l 3.3076,-0.76985 0.1803,-12.02258 0.18032,-12.02258 -8.94548,0 -8.94546,0 0,-2.64592 0,-2.64593 8.93055,0 8.93054,0 0,-5.6226 0,-5.62259 -8.93054,0 -8.93055,0 0,-2.64594 0,-2.64592 8.93055,0 8.93054,0 0,-5.62259 0,-5.62259 -8.93054,0 -8.93055,0 0,-2.64594 0,-2.64592 8.95373,0 8.95366,0 -0.1885,-6.77329 -0.18857,-6.77329 -3.13746,-0.4475 c -16.22679,-2.31437 -29.86475,-15.37058 -33.20193,-31.78564 -1.54227,-7.58621 -1.50135,-7.8003 1.49094,-7.8003 l 2.52747,0 0.7776,5.12648 c 2.0077,13.23634 11.33616,24.05761 24.26664,28.15001 1.8192,0.57577 4.20066,1.13783 5.29218,1.24906 l 1.98456,0.20225 0.17523,-19.67909 0.17523,-19.67909 2.62656,0 2.62655,0 0.17506,19.73732 0.17507,19.73732 4.20712,-0.85835 c 14.2814,-2.91373 25.58263,-15.40444 27.15403,-30.012 l 0.39189,-3.64317 2.4807,-0.2053 2.48071,-0.2053 0,2.87761 c 0,4.22988 -1.66704,10.10146 -4.46427,15.72374 -5.15002,10.35126 -16.73528,18.9653 -27.86345,20.71744 l -4.71748,0.74279 0,6.79915 0,6.79915 6.94597,0 6.94596,0 0,2.64592 0,2.64594 -6.94596,0 -6.94597,0 0,5.62259 0,5.62259 6.94597,0 6.94596,0 0,2.64592 0,2.64594 -6.94596,0 -6.94597,0 0,5.62259 0,5.6226 6.94597,0 6.94596,0 0,2.64593 0,2.64592 -6.94596,0 -6.94597,0 0,12.16231 0,12.16229 2.8566,0.42835 c 2.66164,0.39911 9.22117,3.25349 11.85849,5.16017 1.01698,0.73526 2.17444,-0.18402 9.75629,-7.74856 l 8.60241,-8.58283 -6.29847,-6.32182 -6.29849,-6.32183 1.85872,-1.78066 1.85872,-1.78066 6.24397,6.26968 6.24402,6.26968 3.81984,-3.77976 c 2.10093,-2.07887 3.81984,-4.03566 3.81984,-4.34843 0,-0.31278 -2.68738,-3.27386 -5.97196,-6.58024 l -5.972,-6.01154 1.8104,-1.88956 1.81039,-1.88954 6.32786,6.30368 6.32779,6.30373 3.93596,-3.97719 3.93594,-3.9772 -6.25355,-6.27924 -6.2535,-6.27923 1.80611,-1.80603 1.80612,-1.806 6.28722,6.26063 6.28714,6.26065 4.68474,-4.68452 4.68479,-4.68449 -3.06465,-4.56685 c -4.64652,-6.92418 -5.98857,-11.9837 -5.94872,-22.42685 0.0291,-7.68393 0.21842,-9.07078 1.77621,-13.02889 1.69863,-4.31585 4.9828,-9.82477 7.77136,-13.03598 l 1.38078,-1.59005 1.94286,1.86128 1.94286,1.86128 -2.27346,2.51631 c -6.98081,7.72644 -9.7075,21.60766 -6.35072,32.3305 1.26705,4.04753 5.59499,11.90667 6.55683,11.90667 0.24165,0 6.61073,-6.16574 14.15345,-13.70162 l 13.71414,-13.70161 2.02113,1.93628 2.02119,1.93631 -13.98605,13.99659 -13.9861,13.9966 3.04575,2.09542 c 12.28825,8.45402 30.35981,7.72278 41.33694,-1.67263 l 2.84582,-2.43578 1.92783,1.92773 1.92783,1.92772 -3.62301,2.82944 c -14.06445,10.9838 -33.65944,11.46298 -47.98265,1.17341 l -3.12371,-2.24403 -4.71733,4.74877 -4.7174,4.74877 4.95231,4.91892 4.95227,4.91893 -1.78109,1.85894 -1.78108,1.85893 -5.00762,-4.97788 -5.00754,-4.9779 -3.93278,3.97404 -3.93283,3.97401 4.90902,4.94168 4.90902,4.9417 -1.56998,1.67103 c -0.86347,0.91909 -1.74133,1.66111 -1.95079,1.64899 -0.20946,-0.012 -2.60615,-2.10019 -5.3259,-4.64009 l -4.9451,-4.61799 -3.97384,3.97359 -3.97385,3.9736 4.93401,4.96688 4.934,4.96685 -1.80263,1.80252 -1.80261,1.80251 -4.96894,-4.93546 -4.96886,-4.93544 -8.56066,8.5894 -8.56063,8.58939 2.27288,3.63816 c 1.25012,2.00098 2.76675,5.64739 3.37026,8.10314 l 1.09739,4.46501 12.14304,0 12.1431,0 0,-8.93 0,-8.93 2.6461,0 2.64608,0 0,8.93 0,8.93 5.62294,0 5.62292,0 0,-8.93 0,-8.93 2.64609,0 2.64609,0 0,8.93 0,8.93 5.62293,0 5.62293,0 0,-8.93 0,-8.93 2.64609,0 2.64609,0 0,8.93 0,8.93 6.54011,0 6.54012,0 0.46434,-3.0963 c 1.35549,-9.0384 6.40768,-18.47598 12.9582,-24.20585 6.16529,-5.39288 14.40033,-9.01384 22.94597,-10.08936 l 3.47298,-0.4371 0,2.63179 0,2.63178 -3.69299,0.46138 c -15.40572,1.92469 -28.15416,14.08526 -30.38903,28.98762 l -0.46729,3.11604 19.75536,-3.9e-4 19.75536,-4.1e-4 -0.0694,2.48095 -0.0694,2.48097 -19.61083,0.17522 c -22.50835,0.20109 -20.5909,-0.55589 -18.2297,7.19677 1.71764,5.63968 3.93596,9.52624 7.83392,13.72524 5.85583,6.30812 15.33984,10.98463 22.27692,10.98463 l 2.90715,0 0,2.64592 c 0,2.61828 -0.026,2.64583 -2.48072,2.63616 -3.89641,-0.0153 -10.38301,-1.7718 -14.89099,-4.03218 -11.0805,-5.55595 -18.79522,-15.55262 -21.41686,-27.75183 l -1.12801,-5.24919 -6.50261,0 -6.50254,0 0,6.94555 0,6.94557 -2.64608,0 -2.64609,0 0,-6.94557 0,-6.94555 -5.62293,0 -5.62293,0 0,6.94555 0,6.94557 -2.64609,0 -2.64609,0 0,-6.94557 0,-6.94555 -5.62293,0 -5.62293,0 0,6.94555 0,6.94557 -2.64609,0 -2.64609,0 0,-6.94557 0,-6.94555 -12.17216,0 -12.17215,0 -0.81732,3.47277 c -0.86865,3.69103 -2.60718,7.55967 -4.78699,10.65217 l -1.33044,1.88755 8.68891,8.68839 8.6889,8.6884 6.48607,-6.46135 6.48609,-6.46134 1.45682,1.55063 c 0.8013,0.85286 1.45684,1.82353 1.45684,2.15705 0,0.33355 -2.74594,3.36372 -6.10215,6.73371 l -6.10219,6.12729 3.93595,3.9772 3.9359,3.97718 6.4648,-6.44017 6.46487,-6.44019 1.80675,1.80667 1.80681,1.80667 -6.44058,6.46444 -6.44058,6.46444 3.97744,3.93568 3.97743,3.93569 6.12767,-6.1018 c 3.3702,-3.35599 6.44226,-6.10181 6.82679,-6.10181 0.38452,0 1.39183,0.73728 2.23849,1.63842 l 1.53927,1.6384 -6.38073,6.46374 -6.38066,6.46373 4.59827,4.598 4.59831,4.59801 2.8391,-2.02934 c 7.09282,-5.06975 14.79738,-7.50126 23.71935,-7.48561 9.72901,0.0171 17.58579,2.71603 25.02653,8.59728 l 3.50071,2.76697 -1.80895,1.88801 -1.80894,1.88803 -2.71836,-2.15803 c -8.11047,-6.43867 -16.3724,-8.78811 -26.81243,-7.62462 -5.20385,0.57996 -13.52135,3.9782 -16.44701,6.71967 l -1.51134,1.41617 13.93323,13.9437 13.93317,13.94368 -1.85823,1.78024 -1.8583,1.78022 -13.84337,-13.85434 c -15.82051,-15.83305 -14.48229,-15.3088 -18.53838,-7.26234 -3.0005,5.95237 -3.75002,9.18156 -3.75002,16.15622 0,8.62046 2.27372,15.00781 7.80653,21.93016 l 2.1726,2.71819 -1.88814,1.80885 -1.88814,1.80884 -2.76711,-3.50048 c -5.89458,-7.45675 -8.61372,-15.31008 -8.59784,-24.83204 0.0159,-9.41971 2.2668,-16.60979 7.4861,-23.91089 l 2.02944,-2.83898 -4.61393,-4.61364 -4.61392,-4.61366 -4.94475,4.95745 -4.94478,4.95743 -1.96992,-1.96791 -1.96989,-1.9679 4.92811,-4.96094 4.92812,-4.96094 -3.93282,-3.97404 -3.93276,-3.97401 -4.99397,4.96436 -4.9939,4.96434 -1.80458,-1.80443 -1.80451,-1.80443 4.96464,-4.99366 4.96464,-4.99364 -3.97428,-3.93256 -3.97427,-3.93255 -4.96008,4.92668 -4.96009,4.92668 -1.80261,-1.80252 -1.80261,-1.80252 4.93573,-4.96861 4.9358,-4.96862 -8.62391,-8.62338 -8.62392,-8.62339 -3.92193,2.36154 c -3.59396,2.16404 -5.12663,2.74339 -10.39821,3.93052 l -1.81919,0.40968 0,12.22481 0,12.22483 8.93054,0 8.93055,0 0,2.6459 0,2.64594 -8.93055,0 -8.93054,0 0,5.62259 0,5.6226 8.93054,0 8.93055,0 0,2.64593 0,2.64592 -8.93055,0 -8.93054,0 0,5.62259 0,5.62261 8.93054,0 8.93055,0 0,2.64592 0,2.64592 -8.93055,0 -8.93054,0 0,6.54416 0,6.54412 3.80376,0.67453 c 10.39086,1.84266 20.21795,8.02931 25.94635,16.33461 4.33413,6.28384 7.26213,14.45883 7.28536,20.34056 0.009,2.45464 -0.018,2.48056 -2.63634,2.48056 -2.62164,0 -2.64609,-0.0231 -2.64609,-2.50696 0,-3.58383 -1.73365,-9.75015 -3.82549,-13.60642 -2.21399,-4.08144 -7.32449,-9.76128 -11.15248,-12.39482 -3.27304,-2.25178 -9.8274,-4.85269 -13.95364,-5.53708 l -2.80152,-0.46469 -0.17534,19.73552 -0.17533,19.73557 -2.4807,0.009 -2.48072,0.009 0,-19.76377 z m 0,-115.0192 0,-8.75158 -6.27165,6.24522 -6.27164,6.2452 2.09628,1.3272 c 2.12639,1.34626 8.10809,3.62444 9.6201,3.66392 0.62099,0.0162 0.82691,-2.1582 0.82691,-8.72996 z m 12.2118,6.74971 c 6.04297,-2.65507 6.05761,-2.48341 -0.80057,-9.37213 l -6.11905,-6.14635 0,8.81273 0,8.81272 2.12358,-0.46638 c 1.16793,-0.25652 3.32617,-0.99478 4.79604,-1.64059 z m -24.85406,-19.02126 c -4.42379,-0.10245 -8.21114,-0.0186 -8.41635,0.18661 -0.66573,0.66571 1.23388,6.54576 2.96599,9.18095 l 1.68689,2.56631 5.90336,-5.87373 5.90337,-5.87371 -8.04326,-0.18643 z m 36.55758,7.74168 c 0.96488,-1.97249 1.95603,-4.55377 2.2025,-5.73618 l 0.4482,-2.1498 -8.80397,0 -8.80389,0 5.92952,5.95678 c 3.26124,3.27623 6.2319,5.8575 6.60145,5.73618 0.3695,-0.12135 1.46132,-1.83449 2.42619,-3.80698 z m -33.85117,-19.48399 c -6.18644,-6.22072 -6.28657,-6.28756 -7.39168,-4.934 -1.34022,1.64154 -3.84114,8.11466 -3.84114,9.942 0,1.22447 0.49677,1.29815 8.75212,1.29815 l 8.75209,0 -6.27139,-6.30615 z m 36.3967,5.76474 c 0,-1.47847 -2.14174,-7.35423 -3.4788,-9.54387 l -1.5133,-2.47825 -6.25604,6.28176 -6.25602,6.28177 8.75208,0 c 4.81365,0 8.75208,-0.24363 8.75208,-0.54141 z m -26.7924,-20.51658 c -0.62967,-0.62962 -6.45339,1.19602 -9.50454,2.97951 l -2.89011,1.68938 6.19773,6.22507 6.1977,6.22507 0.18582,-8.3733 c 0.1023,-4.6053 0.018,-8.5409 -0.1866,-8.74573 z m 15.87867,3.48594 c -1.83574,-1.47467 -7.21851,-3.60394 -9.09729,-3.59863 -1.04172,0.003 -1.15765,0.84645 -1.15765,8.42337 l 0,8.42009 5.97756,-5.93954 5.9775,-5.93955 -1.70012,-1.36574 z"
             style="fill:#c34a46;fill-opacity:1" />
          <g
             style="fill:#c34a46;fill-opacity:1"
             transform="translate(450.04172,-78.853857)"
             id="g3375">
	<path
   style="fill:#c34a46;fill-opacity:1"
   inkscape:connector-curvature="0"
   d="m 479.494,260.056 -18.972,0 C 460.664,210.292 452.619,119.733 398.617,59.415 363.336,19.989 315.25,0 255.675,0 196.095,0 148.009,19.989 112.728,59.415 58.725,119.732 50.68,210.3 50.822,260.056 l -18.972,0 c -17.771,0 -32.178,14.408 -32.178,32.178 l 0,406.02 c 0,17.771 14.408,32.178 32.178,32.178 l 447.644,0 c 17.771,0 32.179,-14.407 32.179,-32.178 l 0,-406.02 c 0,-17.77 -14.409,-32.178 -32.179,-32.178 z M 160.805,102.198 c 22.854,-25.461 53.892,-37.842 94.869,-37.842 40.973,0 72.011,12.381 94.864,37.842 39.924,44.469 45.722,117.658 45.58,157.857 l -280.893,0 c -0.133,-40.199 5.657,-113.388 45.58,-157.857 z m 286.511,563.877 -383.288,0 0,-341.664 383.288,0 0,341.664 z"
   id="path3377" />

	
</g>
        </g>
      </g>
    </g>
  </g>
</svg>
